<?xml version="1.0" encoding="UTF-8" standalone="no"?>
<svg xmlns="http://www.w3.org/2000/svg" viewBox="0 0 24 24">
<style>
	g path { stroke: none; }
	g.root { display: none; }
	g.root:target { display: inline; }
	g line { stroke: black; }
	g circle { stroke: black; }
	g polyline { stroke: black; }
</style>
<g class="root" id="24_7" data-name="24 7">
	<path class="st0" d="M23.397 8.233c-0.12-0.365-0.514-0.563-0.879-0.442c-0.365 0.12-0.563 0.514-0.442 0.879c0.354 1.071 0.534 2.192 0.534 3.332c0 5.85-4.759 10.609-10.609 10.609c-1.86 0-3.661-0.48-5.257-1.393l1.21-1.211c0.178-0.178 0.246-0.438 0.177-0.681c-0.068-0.242-0.262-0.429-0.507-0.488l-4.799-1.151c-0.236-0.056-0.483 0.013-0.654 0.184c-0.171 0.171-0.241 0.419-0.184 0.654l1.151 4.799c0.058 0.245 0.246 0.439 0.488 0.507c0.063 0.017 0.126 0.026 0.189 0.026c0.182 0 0.36-0.072 0.492-0.204l1.421-1.421c1.885 1.158 4.041 1.768 6.273 1.768c6.617 0 12-5.383 12-12C24.001 10.713 23.798 9.444 23.397 8.233zM4.201 21.791l-0.597-2.487l2.487 0.597L4.201 21.791zM1.935 15.36C1.574 14.281 1.391 13.15 1.391 12C1.391 6.15 6.15 1.391 12 1.391c1.86 0 3.661 0.48 5.257 1.393l-1.235 1.235c-0.178 0.178-0.246 0.438-0.177 0.681c0.068 0.242 0.262 0.429 0.507 0.488l4.799 1.151c0.054 0.013 0.109 0.019 0.162 0.019c0.182 0 0.36-0.072 0.492-0.204c0.171-0.171 0.241-0.419 0.184-0.654l-1.151-4.799c-0.058-0.245-0.246-0.439-0.488-0.507c-0.242-0.068-0.503-0.001-0.681 0.177l-1.397 1.397C16.388 0.61 14.232 0 12 0C5.383 0 0 5.383 0 12c0 1.3 0.207 2.579 0.614 3.8c0.097 0.291 0.369 0.476 0.659 0.476c0.073 0 0.147-0.012 0.221-0.036C1.859 16.119 2.056 15.725 1.935 15.36zM19.775 2.234l0.597 2.487l-2.487-0.597L19.775 2.234zM12 3.629c0.384 0 0.696 0.312 0.696 0.696v7.671c0 0.384-0.312 0.696-0.696 0.696H6.169c-0.384 0-0.696-0.312-0.696-0.696s0.312-0.696 0.696-0.696h5.135V4.324C11.305 3.94 11.616 3.629 12 3.629z" />
</g>
<g class="root" id="checklist" data-name="Checklist">
	<path class="st0" d="M9.405 4.118c0-0.384-0.312-0.696-0.696-0.696h-4.591c-0.384 0-0.696 0.312-0.696 0.696v5.538c0 0.384 0.312 0.696 0.696 0.696h4.591c0.384 0 0.696-0.312 0.696-0.696V4.118zM8.013 8.96h-3.2V4.813h3.2V8.96zM9.405 12.511c0 0.384-0.312 0.696-0.696 0.696h-4.424c-0.384 0-0.696-0.312-0.696-0.696s0.312-0.696 0.696-0.696h4.424C9.093 11.816 9.405 12.127 9.405 12.511zM9.405 15.368c0 0.384-0.312 0.696-0.696 0.696h-4.424c-0.384 0-0.696-0.312-0.696-0.696s0.312-0.696 0.696-0.696h4.424C9.093 14.672 9.405 14.983 9.405 15.368zM9.405 18.223c0 0.384-0.312 0.696-0.696 0.696h-4.424c-0.384 0-0.696-0.312-0.696-0.696s0.312-0.696 0.696-0.696h4.424C9.093 17.528 9.405 17.839 9.405 18.223zM11.537 22.609H2.04c-0.358 0-0.648-0.291-0.648-0.648V2.04c0-0.358 0.291-0.648 0.648-0.648h12.616v4.202c0 0.384 0.312 0.696 0.696 0.696h4.202v3.262c0 0.384 0.312 0.696 0.696 0.696s0.696-0.312 0.696-0.696V5.587c0-0.184-0.073-0.362-0.204-0.492L15.849 0.204C15.719 0.073 15.542 0 15.357 0H2.04C0.915 0 0 0.915 0 2.04v19.92C0 23.085 0.915 24 2.04 24h9.497c0.384 0 0.696-0.312 0.696-0.696S11.921 22.609 11.537 22.609zM16.047 2.369l2.528 2.528h-2.528V2.369zM17.359 10.718c-3.662 0-6.641 2.979-6.641 6.641S13.697 24 17.359 24S24 21.021 24 17.359S21.021 10.718 17.359 10.718zM17.359 22.609c-2.895 0-5.249-2.355-5.249-5.249s2.355-5.249 5.249-5.249S22.609 14.464 22.609 17.359S20.254 22.609 17.359 22.609zM20.464 16.712l-2.559 3.246c-0.132 0.168-0.333 0.265-0.546 0.265s-0.415-0.097-0.546-0.265l-2.559-3.246c-0.238-0.302-0.186-0.739 0.115-0.977c0.302-0.238 0.739-0.186 0.977 0.115l2.012 2.553l2.012-2.553c0.238-0.302 0.675-0.353 0.977-0.115C20.65 15.973 20.701 16.41 20.464 16.712z" />
</g>
<g class="root" id="community" data-name="Community">
	<path d="M23.877 11.218l-6.898 10.404c-0.137 0.205-0.365 0.328-0.611 0.328c-0.144 0-0.285-0.042-0.405-0.122c-0.163-0.108-0.274-0.273-0.313-0.465s-0.001-0.387 0.108-0.55l6.436-9.706c-0.291-0.021-0.586 0.089-0.79 0.314l-2.497 2.743c0.032 0.121 0.05 0.244 0.056 0.368c0.023 0.486-0.145 0.952-0.473 1.312l-2.066 2.271c-0.272 0.299-0.736 0.32-1.035 0.049c-0.299-0.272-0.321-0.736-0.049-1.035l2.066-2.271c0.064-0.07 0.097-0.162 0.093-0.257c-0.004-0.095-0.045-0.182-0.116-0.246c-0.071-0.065-0.16-0.097-0.257-0.093c-0.094 0.004-0.182 0.045-0.246 0.116l-3.186 3.501c-0.534 0.563-0.753 0.793-0.846 1.104c-0.113 0.376-0.113 0.997-0.113 2.235c0 0.405-0.329 0.733-0.733 0.733s-0.733-0.329-0.733-0.733c0-1.237 0-1.859-0.113-2.235c-0.093-0.312-0.311-0.54-0.836-1.093l-3.197-3.513c-0.064-0.07-0.152-0.111-0.246-0.116c-0.096-0.005-0.185 0.027-0.256 0.092c-0.07 0.064-0.111 0.152-0.116 0.246c-0.004 0.095 0.028 0.186 0.092 0.257l2.067 2.271c0.272 0.299 0.25 0.764-0.049 1.035c-0.299 0.272-0.763 0.25-1.035-0.049l-2.067-2.272c-0.328-0.36-0.495-0.826-0.472-1.312c0.006-0.124 0.024-0.247 0.056-0.368l-2.497-2.743c-0.205-0.225-0.499-0.336-0.791-0.314l6.436 9.706c0.223 0.337 0.131 0.793-0.206 1.016c-0.121 0.08-0.26 0.122-0.405 0.122c-0.246 0-0.475-0.123-0.611-0.328L0.123 11.218c-0.201-0.304-0.152-0.702 0.118-0.947c0.994-0.904 2.538-0.831 3.442 0.162l2.336 2.566c0.283-0.149 0.599-0.218 0.926-0.203c0.486 0.023 0.934 0.234 1.262 0.593l3.186 3.501c0.252 0.265 0.449 0.48 0.609 0.676c0.161-0.198 0.361-0.416 0.619-0.688l3.175-3.489c0.328-0.36 0.775-0.57 1.262-0.593c0.321-0.015 0.642 0.055 0.925 0.203l2.337-2.567c0.438-0.481 1.037-0.762 1.687-0.793c0.651-0.03 1.274 0.193 1.755 0.631C24.028 10.516 24.078 10.914 23.877 11.218zM5.458 5.727C5.511 3.664 7.135 2.049 9.155 2.049c0.985 0 2.029 0.387 2.845 1.045C12.815 2.435 13.859 2.049 14.844 2.049c2.02 0 3.644 1.616 3.697 3.679c0.107 4.198-5.523 7.686-6.165 8.07c-0.114 0.068-0.244 0.104-0.376 0.104s-0.262-0.036-0.376-0.103h0C10.981 13.412 5.351 9.925 5.458 5.727zM12 12.301c1.181-0.774 5.151-3.597 5.076-6.536c-0.032-1.262-1.012-2.25-2.231-2.25c-0.826 0-1.725 0.421-2.292 1.072c-0.139 0.16-0.341 0.251-0.553 0.251c-0.212 0-0.413-0.092-0.553-0.251c-0.567-0.651-1.466-1.072-2.292-1.072c-1.219 0-2.199 0.988-2.232 2.25C6.849 8.705 10.818 11.527 12 12.301z" />
</g>
<g class="root" id="complete" data-name="complete">
	<path d="M12 0A12.013 12.013-4.991 0 0 0 12a12.013 12.013 0 0 0 12 12a12.013 12.013 0 0 0 12-12A12.013 12.013-4.991 0 0 12 0Zm6.654 9.555l-7.664 7.663a1.262 1.262 0 0 1-0.886 0.367v0.519l-0.011-0.519a1.262 1.262 0 0 1-0.89-0.383l-3.866-4.006a1.254 1.254 0 0 1 0.032-1.771a1.247 1.247 0 0 1 0.869-0.351a1.242 1.242 0 0 1 0.902 0.383l2.981 3.089L16.879 7.785a1.246 1.246 0 0 1 0.886-0.367a1.246 1.246 0 0 1 0.886 0.367a1.255 1.255 0 0 1 0 1.773Z" />
</g>
<g class="root" id="customer_protection" data-name="Customer Protection">
	<path class="st0" d="M9.001 19.408c-0.158 0-0.317-0.054-0.447-0.163c-0.268-0.225-0.527-0.458-0.773-0.694c-2.734-2.625-4.12-5.824-4.12-9.508v-1.744c0-0.261 0.146-0.5 0.378-0.619c1.144-0.587 2.039-1.619 2.453-2.832c0.069-0.202 0.227-0.361 0.428-0.431c0.885-0.311 2.652-0.832 4.542-0.832c1.891 0 3.658 0.521 4.542 0.832c0.201 0.071 0.359 0.23 0.428 0.431c0.415 1.213 1.309 2.245 2.453 2.832c0.232 0.119 0.378 0.358 0.378 0.619v1.744c0 0.441-0.02 0.883-0.061 1.312c-0.036 0.383-0.376 0.662-0.758 0.627c-0.383-0.036-0.664-0.376-0.627-0.758c0.036-0.386 0.055-0.783 0.055-1.181v-1.336c-1.18-0.712-2.116-1.807-2.634-3.081c-0.863-0.28-2.285-0.65-3.776-0.65c-1.491 0-2.914 0.37-3.776 0.65c-0.518 1.274-1.454 2.368-2.634 3.08v1.336c0 3.291 1.242 6.152 3.693 8.505c0.223 0.214 0.461 0.428 0.705 0.633c0.294 0.247 0.332 0.686 0.085 0.98C9.396 19.323 9.2 19.408 9.001 19.408zM11.838 23.483c0.161-0.349 0.009-0.762-0.339-0.923C9.99 21.862 2.468 17.933 2.468 9.042V5.968c1.619-0.301 2.881-1.635 3.072-3.291C6.408 2.287 8.835 1.391 11.462 1.391s5.054 0.896 5.922 1.286c0.191 1.655 1.453 2.989 3.072 3.291v3.074c0 0.751-0.055 1.497-0.164 2.219c-0.057 0.38 0.205 0.735 0.584 0.792c0.379 0.057 0.735-0.205 0.792-0.584c0.119-0.79 0.179-1.607 0.179-2.426V5.336c0-0.384-0.312-0.696-0.696-0.696c-1.324 0-2.401-1.078-2.401-2.401c0-0.49-0.361-0.643-0.96-0.899c-0.317-0.136-0.837-0.341-1.508-0.552C15.138 0.429 13.375 0 11.462 0S7.785 0.429 6.642 0.788c-0.671 0.211-1.191 0.417-1.508 0.552c-0.599 0.255-0.96 0.409-0.96 0.899c0 1.324-1.078 2.401-2.401 2.401c-0.384 0-0.696 0.312-0.696 0.696v3.706c0 9.738 8.195 14.021 9.838 14.781c0.095 0.044 0.194 0.065 0.291 0.065C11.468 23.887 11.72 23.738 11.838 23.483zM22.923 17.794c0-3.422-2.784-6.206-6.206-6.206s-6.206 2.784-6.206 6.206S13.295 24 16.718 24S22.923 21.216 22.923 17.794zM21.532 17.794c0 2.655-2.16 4.815-4.815 4.815c-2.655 0-4.815-2.16-4.815-4.815c0-2.655 2.16-4.815 4.815-4.815C19.372 12.979 21.532 15.139 21.532 17.794zM17.293 20.567l2.397-3.533c0.216-0.318 0.133-0.751-0.185-0.966c-0.318-0.216-0.751-0.133-0.966 0.185l-1.821 2.685l-1.821-2.685c-0.216-0.318-0.648-0.401-0.966-0.185c-0.318 0.216-0.401 0.648-0.185 0.966l2.397 3.533c0.129 0.191 0.345 0.305 0.576 0.305l0 0C16.948 20.872 17.163 20.758 17.293 20.567z" />
</g>
<g class="root" id="date" data-name="date">
	<path id="Path_166" class="cls-1" transform="translate(0 0)" d="M23.16 3.057a2.886 2.886 0 0 0-2.138-0.891H18.884V1.4A1.158 1.158 0 0 0 17.815 0.242H16.889a1.158 1.158 0 0 0-1.158 1.158v0.766H8.302V1.4A1.194 1.194 0 0 0 7.126 0.242H6.289a1.176 1.176 0 0 0-1.158 1.176v0.748H3.064A3.064 3.064 0 0 0 0 5.213H0v15.463A3.046 3.046 0 0 0 3.047 23.758H16.889a3.171 3.171 0 0 0 2.245-0.944l3.919-3.919a3.118 3.118 0 0 0 0.944-2.245V5.248A2.957 2.957 0 0 0 23.16 3.057ZM1.907 20.658V8.312H22.126V16.044H18.474a2.138 2.138 0 0 0-2.138 2.138h0v3.563H3.064A1.176 1.176 0 0 1 1.907 20.658Z" />
</g>
<g class="root" id="datetime" data-name="datetime">
	<path d="M19.06 1.412H17.648v-0.706a0.706 0.706 0 0 0-0.706-0.705a0.706 0.706 0 0 0-0.705 0.705v0.706H7.76v-0.706a0.706 0.706 0 0 0-0.705-0.705a0.706 0.706 0 0 0-0.706 0.705v0.706H4.941a4.234 4.234 0 0 0-4.235 4.235v14.118A4.234 4.234-19.81 0 0 4.941 24H19.06a4.234 4.234 0 0 0 4.235-4.235v-14.118A4.234 4.234-19.81 0 0 19.06 1.412ZM12.001 19.765a7.06 7.06 0 0 1-4.991-2.068a7.061 7.061 0 0 1-2.068-4.991a7.06 7.06 0 0 1 2.068-4.991a7.061 7.061 0 0 1 4.991-2.068a7.06 7.06 0 0 1 4.991 2.068a7.061 7.061 0 0 1 2.068 4.991a7.06 7.06 0 0 1-2.068 4.991A7.061 7.061-19.81 0 1 12.001 19.765Zm3.53-7.059a0.708 0.708 0 0 1-0.208 0.498a0.704 0.704 0 0 1-0.498 0.207H12.001a0.704 0.704 0 0 1-0.705-0.705v-3.53a0.705 0.705 0 0 1 0.705-0.705a0.705 0.705 0 0 1 0.705 0.705v2.824h2.118a0.705 0.705 0 0 1 0.706 0.705Z" />
</g>
<g class="root" id="digital_tech" data-name="Digital Tech">
	<path class="st0" d="M21.4 0H2.6C1.166 0 0 1.166 0 2.6v14.023c0 1.433 1.166 2.6 2.6 2.6h0.822l1.909 4.361c0.111 0.253 0.361 0.417 0.637 0.417s0.527-0.163 0.637-0.417l1.909-4.361h12.887c1.433 0 2.6-1.166 2.6-2.6V2.6C23.999 1.166 22.833 0 21.4 0zM22.608 16.623c0 0.666-0.542 1.208-1.208 1.208H8.058c-0.276 0-0.527 0.163-0.637 0.417l-1.454 3.322l-1.454-3.322c-0.111-0.253-0.361-0.417-0.637-0.417H2.6c-0.666 0-1.208-0.542-1.208-1.208V2.6C1.391 1.933 1.933 1.391 2.6 1.391h18.8c0.666 0 1.208 0.542 1.208 1.208V16.623zM17.446 9.742c-0.358-0.141-1.296-0.506-2.231-0.87c0.314-0.544 0.495-1.174 0.495-1.847c0-2.045-1.664-3.71-3.71-3.71s-3.71 1.664-3.71 3.71c0 0.672 0.181 1.302 0.495 1.847c-0.937 0.365-1.876 0.73-2.231 0.87c-1 0.393-1.619 0.894-1.619 2.175v3.292c0 0.384 0.312 0.696 0.696 0.696h12.739c0.384 0 0.696-0.312 0.696-0.696v-3.292C19.065 10.637 18.445 10.136 17.446 9.742zM12 4.709c1.279 0 2.319 1.04 2.319 2.319s-1.04 2.319-2.319 2.319s-2.319-1.04-2.319-2.319S10.721 4.709 12 4.709zM17.674 14.514h-1.791v-1.328c0-0.384-0.312-0.696-0.696-0.696s-0.696 0.312-0.696 0.696v1.328h-4.985v-1.328c0-0.384-0.312-0.696-0.696-0.696s-0.696 0.312-0.696 0.696v1.328H6.325v-2.596c0-0.497 0.022-0.6 0.737-0.881c0.413-0.163 1.626-0.634 2.702-1.052c0.622 0.471 1.396 0.751 2.235 0.751c0.839 0 1.613-0.28 2.235-0.751c1.073 0.417 2.284 0.888 2.702 1.052c0.714 0.281 0.737 0.383 0.737 0.881V14.514z" />
</g>
<g class="root" id="financing" data-name="Financing">
	<path class="st0" d="M19.038 13.669c0.494 0 0.895-0.402 0.895-0.895s-0.402-0.895-0.895-0.895c-0.494 0-0.896 0.402-0.896 0.895S18.544 13.669 19.038 13.669zM14.378 8.005c0.384 0 0.696 0.312 0.696 0.696s-0.312 0.696-0.696 0.696H10.247c-0.384 0-0.696-0.312-0.696-0.696s0.312-0.696 0.696-0.696H14.378zM24 13.554v2.59c0 0.253-0.136 0.485-0.357 0.607c-1.85 1.032-3.674 1.837-4.311 2.11l-1.552 2.959c-0.12 0.229-0.358 0.372-0.616 0.372h-2.491c-0.384 0-0.696-0.312-0.696-0.696v-1.279c-1.097 0.141-2.232 0.141-3.329 0v1.279c0 0.384-0.312 0.696-0.696 0.696h-2.491c-0.259 0-0.496-0.143-0.616-0.372l-2.24-4.269c-1.283-1.19-2.061-2.655-2.235-4.191C1.03 13.154 0 11.994 0 10.597c0-0.384 0.312-0.696 0.696-0.696s0.696 0.312 0.696 0.696c0 0.63 0.418 1.165 0.991 1.342c0.356-2.753 2.632-5.16 6.004-6.258c0.365-0.119 0.758 0.081 0.877 0.446c0.119 0.365-0.081 0.758-0.446 0.877c-3.094 1.008-5.094 3.243-5.094 5.693c0 1.434 0.659 2.784 1.906 3.906c0.061 0.055 0.113 0.121 0.151 0.194l2.101 4.005h1.375V19.401c0-0.208 0.093-0.405 0.253-0.537c0.161-0.132 0.371-0.186 0.576-0.145c1.447 0.283 3.006 0.283 4.454 0c0.205-0.04 0.415 0.014 0.576 0.145s0.253 0.329 0.253 0.537v1.4h1.375l1.473-2.806c0.076-0.144 0.2-0.257 0.35-0.319c0.021-0.008 1.993-0.829 4.043-1.942v-1.711c-1.054-0.515-1.558-1.39-1.654-1.571c-0.044-0.079-0.072-0.166-0.083-0.259c-0.09-0.811-0.406-1.606-0.92-2.332l-0.846 0.846c-0.136 0.136-0.314 0.204-0.492 0.204c-0.178 0-0.356-0.068-0.492-0.204c-0.272-0.272-0.272-0.712 0-0.984l2.508-2.508c-0.813-0.444-1.778-0.339-2.445 0.328c-0.216 0.216-0.548 0.266-0.819 0.122c-0.487-0.259-1.011-0.481-1.56-0.659c-0.365-0.119-0.565-0.512-0.446-0.877c0.119-0.365 0.512-0.565 0.877-0.446c0.468 0.152 0.922 0.333 1.354 0.539c1.367-1.011 3.29-0.86 4.583 0.432c0.131 0.131 0.204 0.307 0.204 0.492s-0.073 0.362-0.204 0.492l-1.228 1.228c0.702 0.925 1.144 1.958 1.29 3.027c0.131 0.209 0.532 0.758 1.281 1C23.806 12.985 24 13.252 24 13.554zM12.312 7.397c1.541 0 2.795-1.254 2.795-2.795S13.854 1.807 12.312 1.807s-2.795 1.254-2.795 2.795S10.771 7.397 12.312 7.397zM12.312 3.199c0.774 0 1.404 0.63 1.404 1.404s-0.63 1.404-1.404 1.404c-0.774 0-1.404-0.63-1.404-1.404S11.539 3.199 12.312 3.199z" />
</g>
<g class="root" id="globe" data-name="globe">
	<path d="M12 21.549a9.36 9.36 0 0 1-5.052-1.464l0.48-2.256a2.671 2.671 0 0 0-0.18-1.644l-0.732-1.584a0.587 0.587 0 0 0-0.456-0.336l-2.652-0.372a0.319 0.319 0 0 1-0.204-0.528l0.456-0.564a0.632 0.632 0 0 1 0.528-0.204l0.996 0.156a0.856 0.856 0 0 0 0.348-0.024l1.344-0.3a0.253 0.253 0 0 0 0.12-0.048l0.888-0.432a0.566 0.566 0 0 0 0.324-0.432l0.36-2.652a0.564 0.564 0 0 0-0.36-0.612l-0.456-0.168a0.6 0.6 0 0 1-0.396-0.528a0.586 0.586 0 0 1 0.528-0.612l0.66-0.048a0.583 0.583 0 0 0 0.528-0.612l-0.048-0.804l-0.084-1.596a0.536 0.536 0 0 0-0.372-0.504l-0.36-0.12a9.394 9.394 0 0 1 3.768-0.756a8.304 8.304 0 0 1 2.124 0.252l0.072 1.416v0.048l-0.18 1.764a0.258 0.258 0 0 0 0.048 0.18l0.204 0.3a0.253 0.253 0 0 0 0.384 0.048l0.528-0.48a0.277 0.277 0 0 1 0.432 0.132l0.024 0.072a0.24 0.24 0 0 0 0.228 0.18l0.6 0.024a0.161 0.161 0 0 0 0.108-0.024l0.504-0.204a0.246 0.246 0 0 1 0.324 0.324l-0.276 0.912a0.232 0.232 0 0 1-0.228 0.18l-0.672 0.024h-0.084l-0.852-0.252a0.454 0.454 0 0 0-0.18 0l-0.408 0.18a0.298 0.298 0 0 1-0.204 0l-0.528-0.252a0.258 0.258 0 0 0-0.228 0.024l-0.684 0.48a0.226 0.226 0 0 0-0.096 0.204l0.096 0.78a0.215 0.215 0 0 1-0.144 0.252l-0.504 0.228a0.26 0.26 0 0 0-0.084 0.408l0.36 0.324a0.346 0.346 0 0 0 0.228 0.072l0.648-0.144a0.329 0.329 0 0 1 0.156 0.024l0.3 0.12a5.488 5.488 0 0 1 0.48 0.36a0.272 0.272 0 0 0 0.384-0.048a0.34 0.34 0 0 1 0.18-0.132l0.504-0.048a0.208 0.208 0 0 0 0.144-0.072l0.06-0.06a0.24 0.24 0 0 1 0.396 0.108l0.252 0.708c0.024 0.024 0.024 0.048 0.048 0.072l0.288 0.384a0.274 0.274 0 0 1-0.024 0.348l-0.708 0.66a0.26 0.26 0 0 1-0.36 0l-0.684-0.636c-0.024-0.024-0.048-0.024-0.072-0.048l-0.96-0.408c-0.024 0-0.048-0.024-0.072-0.024l-1.272-0.12h-0.096l-1.056 0.3a1.015 1.015 0 0 0-0.708 0.684l-0.252 0.78a0.922 0.922 0 0 0 0.048 0.756l0.396 0.864a1.1 1.1 0 0 0 0.864 0.6l0.96 0.108c0.024 0 0.072 0.024 0.096 0.024l0.54 0.3a0.247 0.247 0 0 1 0.12 0.204l0.072 0.96a2.771 2.771 0 0 0 0.288 0.96l0.456 0.852a0.277 0.277 0 0 0 0.072 0.108l0.756 0.552a0.308 0.308 0 0 0 0.432-0.072l0.252-0.336c0.024-0.048 0.048-0.072 0.072-0.12l0.552-1.392a0.072 0.072 0 0 1 0.036-0.072l0.168-2.004c0-0.024 0.036-0.048 0.036-0.072l0.396-0.828a0.284 0.284 0 0 1 0.252-0.156l1.368 0.18a0.36 0.36 0 0 0 0.228-0.084l0.252-0.276a0.272 0.272 0 0 0 0.024-0.324l-0.66-0.864a0.275 0.275 0 0 1 0.156-0.408l0.252-0.048c0.048 0 0.432-0.024 0.552-0.048h0.048l0.612 0.096a0.264 0.264 0 0 1 0.252 0.288l-0.156 1.74a0.157 0.157 0 0 0 0.036 0.12l0.48 1.248a9.574 9.574 0 0 1-8.772 5.784h0Zm0-21.549a12 12 0 1 0 12 12A12 12-5645.373 0 0 12 0Z" />
</g>
<g class="root" id="home" data-name="home">
	<path style="stroke-width: 2;" d="M23.871 13.328l-11.548-11.974a0.437 0.437 0 0 0-0.32-0.137h0a0.443 0.443 0 0 0-0.328 0.133l-11.548 11.98a0.448 0.448 0 0 0 0.008 0.635a0.472 0.472 0 0 0 0.328 0.121a0.448 0.448 0 0 0 0.312-0.136l1.501-1.557V22.331a0.456 0.456 0 0 0 0.456 0.449h6.332a0.448 0.448 0 0 0 0.448-0.449V15.363h4.968v6.969a0.456 0.456 0 0 0 0.456 0.449h6.332a0.456 0.456 0 0 0 0.456-0.449V12.39l1.493 1.553a0.464 0.464 0 0 0 0.32 0.139h0.008a0.445 0.445 0 0 0 0.328-0.755h0Zm-8.935 1.137h-5.871a0.448 0.448 0 0 0-0.448 0.448v6.972h-5.439V11.452l8.816-9.151l8.824 9.151V21.883h-5.439v-6.972a0.448 0.448 0 0 0-0.448-0.448h0Z" />
</g>
<g class="root" id="issue" data-name="Issue">
	<path class="st0" d="M23.578 12.021c-0.006 3.201-1.256 6.209-3.521 8.471C17.79 22.754 14.779 24 11.578 24c-4.395 0-8.415-2.385-10.527-6.235L0.145 19.173L0 13.984l3.631 3.767l-1.625-0.321C3.963 20.871 7.613 23.002 11.578 23.002c2.967 0 5.75-1.164 7.834-3.277c2.083-2.113 3.209-4.911 3.167-7.881C22.495 5.862 17.561 0.998 11.577 0.998c-0.003 0-0.005 0-0.008 0c-1.763 0.001-3.515 0.43-5.068 1.239c-0.222 0.115-0.487 0.053-0.632-0.148l-0.006-0.008c-0.084-0.117-0.113-0.263-0.08-0.403c0.033-0.14 0.125-0.258 0.252-0.324C7.734 0.468 9.65 0 11.578 0c0.009 0 0.018 0 0.028 0C14.8 0.007 17.806 1.265 20.072 3.539C22.338 5.815 23.583 8.827 23.578 12.021zM18.837 8.807c0 1.109-0.223 2.183-0.662 3.194c-0.068 0.157-0.223 0.258-0.394 0.258H12.54c-0.135 0-0.263-0.064-0.345-0.172l-0.79-1.056c-0.095-0.127-0.112-0.295-0.046-0.439l0.414-0.89l-0.507-0.607l0.047 0.353c0.017 0.129-0.025 0.258-0.113 0.352l-0.941 0.998l0.389 0.852c0.061 0.133 0.049 0.288-0.03 0.411c-0.079 0.123-0.215 0.197-0.362 0.197H5.023c-0.171 0-0.326-0.102-0.394-0.258c-0.439-1.01-0.662-2.085-0.662-3.194c0-1.109 0.223-2.183 0.662-3.194c0.068-0.157 0.223-0.258 0.394-0.258H17.781c0.171 0 0.326 0.102 0.394 0.258C18.614 6.624 18.837 7.698 18.837 8.807zM17.977 8.807c0-0.896-0.163-1.766-0.484-2.592H5.311c-0.321 0.825-0.484 1.696-0.484 2.592c0 0.896 0.163 1.767 0.484 2.592h4.277l-0.231-0.507c-0.073-0.159-0.042-0.346 0.078-0.474l0.999-1.06l-0.217-1.624c-0.025-0.19 0.078-0.374 0.253-0.451c0.175-0.077 0.381-0.029 0.503 0.118l1.636 1.957c0.107 0.128 0.13 0.306 0.06 0.457l-0.421 0.905l0.507 0.677H17.492C17.814 10.574 17.977 9.703 17.977 8.807zM11.736 12.812c0.255 0.316 2.487 3.127 2.487 4.559c0 1.556-1.266 2.822-2.822 2.822c-1.556 0-2.822-1.266-2.822-2.822c0-1.431 2.233-4.243 2.487-4.559c0.082-0.101 0.205-0.16 0.335-0.16C11.532 12.652 11.655 12.711 11.736 12.812zM13.363 17.372c0-0.75-1.094-2.444-1.962-3.59c-0.868 1.146-1.962 2.84-1.962 3.59c0 1.082 0.88 1.962 1.962 1.962C12.483 19.333 13.363 18.453 13.363 17.372zM10.538 16.563c-0.237 0-0.43 0.193-0.43 0.43v0.766c0 0.237 0.193 0.43 0.43 0.43s0.43-0.193 0.43-0.43v-0.766C10.969 16.755 10.776 16.563 10.538 16.563z" />
</g>
<g class="root" id="location_pin" data-name="location-pin">
	<path d="M12.134 0.001a9.118 9.118 0 0 0-1.521 0.107a8.949 8.949 0 0 0-7.558 8.705C2.974 13.756 8.757 20.897 11.859 24c3.908-3.908 9.01-9.97 9.087-14.912l-5.109-0.08h0a3.959 3.959 0 0 1-1.395 2.187a3.959 3.959 0 0 1-2.451 0.852a3.959 3.959 0 0 1-2.792-1.161a3.959 3.959 0 0 1-1.154-2.795a3.959 3.959 0 0 1 1.16-2.792a3.959 3.959 0 0 1 2.795-1.154a3.959 3.959 0 0 1 2.793 1.16a3.952 3.952 0 0 1 1.154 2.795l-3.952 0l3.952 0h0a3.866 3.866 0 0 1-0.112 0.907l5.107 0.077a8.95 8.95 0 0 0-8.813-9.083Z" />
</g>
<g class="root" id="locations" data-name="Locations">
	<path class="st0" d="M24 19.145v1.475c0 0.384-0.312 0.696-0.696 0.696H0.696c-0.384 0-0.696-0.312-0.696-0.696v-1.475c0-0.125 0.033-0.246 0.097-0.353l2.459-4.165c0.195-0.33 0.622-0.44 0.953-0.246c0.331 0.195 0.44 0.622 0.246 0.953L1.391 19.335v0.589h21.217v-0.577l-1.955-3.09c-0.205-0.325-0.109-0.754 0.216-0.96c0.325-0.205 0.755-0.109 0.96 0.216l2.063 3.261C23.962 18.884 24 19.014 24 19.145zM9.821 12.265c0-0.384 0.312-0.696 0.696-0.696h1.251c-0.396-0.831-0.653-1.78-0.653-2.934C11.115 5.353 13.785 2.684 17.066 2.684s5.951 2.669 5.951 5.951c0 2.551-1.233 4.031-2.538 5.597c-1.063 1.275-2.161 2.594-2.742 4.682c-0.083 0.301-0.358 0.509-0.67 0.509c-0.312 0-0.586-0.208-0.67-0.509c-0.568-2.041-1.657-3.343-2.71-4.602c-0.367-0.438-0.737-0.881-1.077-1.352h-2.093C10.132 12.96 9.821 12.649 9.821 12.265zM12.506 8.635c0 1.297 0.379 2.245 0.964 3.134c0.065 0.063 0.117 0.139 0.152 0.224c0.33 0.47 0.715 0.931 1.129 1.426c0.786 0.94 1.647 1.969 2.31 3.338c0.673-1.407 1.549-2.458 2.346-3.416c1.238-1.486 2.216-2.659 2.216-4.707c0-2.816-2.367-4.559-4.559-4.559S12.506 5.819 12.506 8.635zM3.974 13.324c-0.746-0.957-1.517-1.948-1.517-3.517C2.458 7.797 4.093 6.162 6.102 6.162s3.645 1.635 3.645 3.645c0 1.569-0.771 2.56-1.517 3.517c-0.569 0.73-1.157 1.485-1.457 2.567c-0.083 0.301-0.358 0.509-0.67 0.509c-0.312 0-0.586-0.208-0.67-0.509C5.131 14.809 4.543 14.054 3.974 13.324zM3.849 9.807c0 1.091 0.54 1.785 1.223 2.662c0.341 0.438 0.707 0.909 1.03 1.466c0.323-0.558 0.689-1.028 1.03-1.466c0.683-0.877 1.223-1.571 1.223-2.662C8.355 8.415 7.186 7.554 6.102 7.554C5.018 7.554 3.849 8.415 3.849 9.807zM15.44 10.294c-0.449-0.45-0.696-1.061-0.696-1.72C14.747 7.222 15.807 6.162 17.158 6.162h0.003c1.354 0 2.414 1.059 2.416 2.413c0.001 0.659-0.246 1.27-0.695 1.72c-0.451 0.451-1.059 0.7-1.713 0.7h-0.015C16.499 10.994 15.891 10.745 15.44 10.294zM16.136 8.577c-0.001 0.291 0.099 0.545 0.289 0.735c0.188 0.188 0.447 0.291 0.728 0.291h0.015c0.282 0 0.541-0.104 0.728-0.291c0.189-0.189 0.289-0.443 0.289-0.735C18.184 7.984 17.754 7.554 17.164 7.554h-0.006C16.567 7.554 16.137 7.984 16.136 8.577z" />
</g>
<g class="root" id="next_plumbing" data-name="Next Plumbing">
	<path class="st0" d="M23.578 12.021c-0.006 3.201-1.256 6.209-3.521 8.471C17.79 22.754 14.779 24 11.578 24c-4.395 0-8.415-2.385-10.527-6.235L0.145 19.173L0 13.984l3.631 3.767l-1.625-0.321C3.963 20.871 7.613 23.002 11.578 23.002c2.967 0 5.75-1.164 7.834-3.277c2.083-2.113 3.209-4.911 3.167-7.881C22.495 5.862 17.561 0.998 11.577 0.998c-0.003 0-0.005 0-0.008 0c-1.763 0.001-3.515 0.43-5.068 1.239c-0.222 0.115-0.487 0.053-0.632-0.148l-0.006-0.008c-0.084-0.117-0.113-0.263-0.08-0.403c0.033-0.14 0.125-0.258 0.252-0.324C7.734 0.468 9.65 0 11.578 0c0.009 0 0.018 0 0.028 0C14.8 0.007 17.806 1.265 20.072 3.539C22.338 5.815 23.583 8.827 23.578 12.021zM18.886 8.484l-0.172 1.44c-0.012 0.096-0.055 0.185-0.123 0.253l-0.521 0.521c-0.084 0.084-0.194 0.126-0.304 0.126s-0.22-0.042-0.304-0.126l-2.595-2.595l-0.529 0.529l2.595 2.595c0.168 0.168 0.168 0.44 0 0.608l-0.521 0.521c-0.068 0.068-0.157 0.111-0.253 0.123l-1.44 0.172c-0.017 0.002-0.034 0.003-0.051 0.003c-0.114 0-0.223-0.045-0.304-0.126l-0.216-0.216c-0.039 0.05-0.082 0.098-0.128 0.144L9.694 16.782c0 0 0 0 0 0s0 0 0 0l-2.154 2.154c-0.325 0.325-0.751 0.487-1.178 0.487c-0.427 0-0.853-0.163-1.178-0.487c-0.649-0.65-0.649-1.707 0-2.357l5.256-5.256l-0.265-0.265l-1.003 1.003c-0.084 0.084-0.194 0.126-0.304 0.126s-0.22-0.042-0.304-0.126c-0.168-0.168-0.168-0.44 0-0.608l1.003-1.003l-0.494-0.494c-0.168-0.168-0.168-0.44 0-0.608l1.78-1.78c0 0 0 0 0 0s0 0 0 0l2.51-2.51c0.311-0.311 0.725-0.483 1.165-0.483c0.44 0 0.854 0.171 1.165 0.483l3.071 3.071C18.856 8.222 18.901 8.353 18.886 8.484zM13.411 11.848c0.307-0.307 0.307-0.806 0-1.113l-0.892-0.892c0 0 0 0-0.001-0.001l-1.362-1.362l-1.172 1.172l0.494 0.494c0 0 0 0 0 0s0 0 0 0l0.873 0.873c0.168 0.168 0.168 0.44 0 0.608L5.791 17.188c-0.314 0.314-0.314 0.825 0 1.14c0.314 0.314 0.825 0.314 1.14 0l1.85-1.85l-0.345-0.345c-0.168-0.168-0.168-0.44 0-0.608c0.168-0.168 0.44-0.168 0.608 0l0.345 0.345l0.215-0.215l-0.345-0.345c-0.168-0.168-0.168-0.44 0-0.608c0.168-0.168 0.44-0.168 0.608 0l0.345 0.345l0.215-0.215l-0.345-0.345c-0.168-0.168-0.168-0.44 0-0.608c0.168-0.168 0.44-0.168 0.608 0l0.345 0.345L13.411 11.848zM13.729 9.24l-0.298 0.298l0.588 0.588v0c0.36 0.36 0.517 0.845 0.474 1.316l0.329 0.329l1.085-0.13l0.111-0.111L13.729 9.24zM18.006 8.589l-2.923-2.923c-0.149-0.149-0.346-0.231-0.557-0.231s-0.408 0.082-0.557 0.231l-2.206 2.206l1.058 1.058l0.599-0.599c0.001-0.001 0.002-0.003 0.003-0.003c0.001-0.001 0.003-0.002 0.003-0.003l1.134-1.134c0.084-0.084 0.194-0.126 0.304-0.126c0.11 0 0.22 0.042 0.304 0.126l2.595 2.595l0.111-0.111L18.006 8.589zM11.369 9.256c-0.168-0.168-0.44-0.168-0.608 0c-0.168 0.168-0.168 0.44 0 0.608l0.477 0.477c0.084 0.084 0.194 0.126 0.304 0.126s0.22-0.042 0.304-0.126c0.168-0.168 0.168-0.44 0-0.608L11.369 9.256z" />
</g>
<g class="root" id="phone" data-name="phone">
	<path class="cls-1" d="M2.213 1.38l1.257-1.257a0.449 0.449 0 0 1 0.617 0L9.343 5.387a0.449 0.449 0 0 1 0 0.617L8.095 7.275L6.66 8.423s0.473 2.227 3.578 5.335S15.564 17.336 15.564 17.336l1.164-1.449l1.231-1.231a0.443 0.443 0 0 1 0.617 0l5.289 5.289a0.443 0.443 0 0 1 0 0.617l-1.254 1.254a8.022 8.022 0 0 1-4.792 2.183c-2.609-0.523-7.327-3.437-10.835-6.949S0.553 8.778 0.01 6.192a8.29 8.29 0 0 1 2.203-4.813Z" />
</g>
<g class="root" id="search" data-name="search">
	<path d="M23.234 21.861L17.522 15.92c1.468-1.746 2.274-3.942 2.274-6.23c0-5.343-4.347-9.69-9.69-9.69s-9.69 4.347-9.69 9.69s4.347 9.69 9.69 9.69c2.006 0 3.918-0.604 5.552-1.754l5.756 5.986c0.24 0.25 0.564 0.387 0.91 0.387c0.328 0 0.639-0.126 0.876-0.352C23.7 23.164 23.716 22.364 23.234 21.861zM10.104 2.529c3.95 0 7.163 3.213 7.163 7.163s-3.213 7.163-7.163 7.163s-7.163-3.213-7.163-7.163S6.156 2.529 10.104 2.529z" />
</g>
<g class="root" id="tips" data-name="Tips">
	<path class="st0" d="M23.578 12.021c-0.006 3.201-1.256 6.209-3.521 8.471C17.79 22.754 14.779 24 11.578 24c-4.395 0-8.415-2.385-10.527-6.235L0.145 19.173L0 13.984l3.631 3.767l-1.625-0.321C3.963 20.871 7.613 23.002 11.578 23.002c2.967 0 5.75-1.164 7.834-3.277c2.083-2.113 3.209-4.911 3.167-7.881C22.495 5.862 17.561 0.998 11.577 0.998c-0.003 0-0.005 0-0.008 0c-1.763 0.001-3.515 0.43-5.068 1.239c-0.222 0.115-0.487 0.053-0.632-0.148l-0.006-0.008c-0.084-0.117-0.113-0.263-0.08-0.403c0.033-0.14 0.125-0.258 0.252-0.324C7.734 0.468 9.65 0 11.578 0c0.009 0 0.018 0 0.028 0C14.8 0.007 17.806 1.265 20.072 3.539C22.338 5.815 23.583 8.827 23.578 12.021zM10.893 10.634l1.294-1.294c0.081-0.081 0.19-0.126 0.304-0.126s0.224 0.045 0.304 0.126l2.212 2.213c0.081 0.081 0.126 0.19 0.126 0.304c0 0.114-0.045 0.224-0.126 0.304l-1.294 1.294c-0.083 0.083-0.193 0.126-0.304 0.126c-0.064 0-0.129-0.014-0.189-0.044c-0.521-0.255-0.994-0.594-1.405-1.004c-0.411-0.411-0.749-0.883-1.005-1.404C10.73 10.963 10.763 10.764 10.893 10.634zM11.726 11.017c0.192 0.331 0.426 0.635 0.697 0.907c0.272 0.272 0.576 0.506 0.907 0.697l0.764-0.764l-1.604-1.604L11.726 11.017zM4.668 15.255c-0.089-0.089-0.134-0.212-0.125-0.337c0.01-0.125 0.074-0.24 0.175-0.314l2.916-2.131l0.523-1.191c-0.158-0.572-0.508-2.422 0.992-3.993c0.002-0.003 0.005-0.005 0.007-0.007l1.584-1.584c0.081-0.081 0.19-0.126 0.304-0.126c0.114 0 0.224 0.045 0.304 0.126c0.421 0.421 0.67 0.967 0.714 1.555l2.158-2.158c0.089-0.089 0.214-0.135 0.34-0.124c0.648 0.054 1.276 0.227 1.854 0.506c0.022 0.009 0.044 0.019 0.065 0.032c0.505 0.252 0.969 0.584 1.374 0.988c0 0 0 0 0 0c0 0 0 0 0 0c0 0 0 0 0 0c0 0 0 0 0 0c0.404 0.404 0.736 0.868 0.988 1.372c0.013 0.022 0.024 0.043 0.033 0.066c0.278 0.578 0.452 1.206 0.505 1.853c0.01 0.126-0.035 0.25-0.124 0.34l-5.909 5.91c0 0-0.001 0.001-0.001 0.001c-0.002 0.002-0.004 0.004-0.006 0.006c-0.01 0.009-0.02 0.018-0.03 0.026c-0.004 0.003-0.008 0.006-0.011 0.008c-0.009 0.007-0.019 0.014-0.03 0.02c-0.004 0.003-0.008 0.005-0.012 0.007c-0.011 0.006-0.022 0.012-0.034 0.018c-0.002 0.001-0.004 0.002-0.006 0.003L11.875 16.714l-2.131 2.916c-0.074 0.102-0.189 0.165-0.314 0.175c-0.011 0.001-0.022 0.001-0.033 0.001c-0.114 0-0.223-0.045-0.304-0.126L4.668 15.255zM9.224 11.308l3.817 3.817l5.46-5.46c-0.035-0.277-0.098-0.549-0.184-0.812l-2.06 2.06c-0.084 0.084-0.194 0.126-0.304 0.126s-0.22-0.042-0.304-0.126c-0.168-0.168-0.168-0.44 0-0.608l2.292-2.292c-0.12-0.206-0.255-0.403-0.408-0.588l-2.383 2.383c-0.084 0.084-0.194 0.126-0.304 0.126c-0.11 0-0.22-0.042-0.304-0.126c-0.168-0.168-0.168-0.44 0-0.608l2.383-2.382c-0.185-0.152-0.382-0.289-0.588-0.408l-2.292 2.292c-0.084 0.084-0.194 0.126-0.304 0.126s-0.22-0.042-0.304-0.126c-0.168-0.168-0.168-0.44 0-0.608l2.06-2.06c-0.263-0.086-0.535-0.149-0.812-0.184L9.224 11.308zM8.877 10.437l1.862-1.863c0 0 0 0 0 0c0.303-0.303 0.47-0.706 0.47-1.134c0-0.281-0.072-0.551-0.207-0.789l-1.235 1.235C8.921 8.774 8.822 9.777 8.877 10.437zM5.631 15.002l3.715 3.715l1.903-2.604c0.045-0.061 0.105-0.11 0.174-0.14l0.868-0.381l-3.535-3.535l-0.381 0.868c-0.031 0.069-0.079 0.129-0.14 0.174L5.631 15.002zM9.222 16.19l-1.065-1.065c-0.168-0.168-0.44-0.168-0.608 0c-0.168 0.168-0.168 0.44 0 0.608l1.065 1.065c0.084 0.084 0.194 0.126 0.304 0.126s0.22-0.042 0.304-0.126C9.39 16.631 9.39 16.358 9.222 16.19z" />
</g>
<g class="root" id="van" data-name="Van">
	<path class="st0" d="M10.01 12.326c0 0.384-0.312 0.696-0.696 0.696h-0.846c-0.384 0-0.696-0.312-0.696-0.696s0.312-0.696 0.696-0.696h0.846C9.699 11.63 10.01 11.941 10.01 12.326zM16.866 12.399h-3.251c-0.384 0-0.696 0.312-0.696 0.696s0.312 0.696 0.696 0.696h3.251c0.384 0 0.696-0.312 0.696-0.696S17.25 12.399 16.866 12.399zM15.362 9.378c0.125 0.093 0.271 0.138 0.416 0.138c0.211 0 0.421-0.097 0.558-0.279l0.884-1.183c0.23-0.307 0.167-0.744-0.141-0.974c-0.307-0.23-0.744-0.167-0.974 0.141L15.221 8.404C14.991 8.712 15.054 9.148 15.362 9.378zM17.402 9.378c0.125 0.093 0.271 0.138 0.416 0.138c0.211 0 0.421-0.097 0.558-0.279l0.884-1.183c0.23-0.307 0.167-0.744-0.141-0.974s-0.744-0.167-0.974 0.141l-0.884 1.183C17.032 8.712 17.095 9.148 17.402 9.378zM24 6.924v10.419c0 0.384-0.312 0.696-0.696 0.696h-1.689c-0.125 0-0.242-0.033-0.343-0.091c-0.426 0.543-1.087 0.891-1.831 0.891c-0.744 0-1.405-0.349-1.831-0.891c-0.102 0.058-0.218 0.091-0.343 0.091H7.23c-0.125 0-0.242-0.033-0.343-0.091c-0.426 0.543-1.087 0.891-1.831 0.891s-1.405-0.349-1.831-0.891c-0.102 0.058-0.218 0.091-0.343 0.091H0.696c-0.384 0-0.696-0.312-0.696-0.696v-2.613c0-0.177 0.067-0.346 0.188-0.475l0.464-0.495c0.001-0.154 0-0.38-0.001-0.692c-0.005-0.782 0.105-1.326 0.697-1.958c0.259-0.277 1.805-1.882 3.299-3.435C5.517 6.77 6.353 5.902 6.859 5.375c0.131-0.136 0.312-0.214 0.502-0.214h14.876C23.209 5.161 24 5.952 24 6.924zM22.237 6.552H11.873v3.354H22.609V6.924C22.609 6.719 22.442 6.552 22.237 6.552zM6.008 16.512c0-0.525-0.427-0.952-0.952-0.952S4.104 15.987 4.104 16.512c0 0.525 0.427 0.952 0.952 0.952S6.008 17.036 6.008 16.512zM20.393 16.512c0-0.525-0.427-0.952-0.952-0.952s-0.952 0.427-0.952 0.952c0 0.525 0.427 0.952 0.952 0.952S20.393 17.036 20.393 16.512zM22.609 16.648v-2.858h-0.15c-0.384 0-0.696-0.312-0.696-0.696s0.312-0.696 0.696-0.696H22.609V11.297H11.873v2.296c0 0.384-0.312 0.696-0.696 0.696s-0.696-0.312-0.696-0.696v-2.296h-4.73v1.371c0 0.384-0.312 0.696-0.696 0.696s-0.696-0.312-0.696-0.696V10.602c0-0.384 0.312-0.696 0.696-0.696h5.426V6.552h-2.824c-0.511 0.532-1.247 1.296-2.008 2.088C4.227 10.117 2.616 11.791 2.362 12.061c-0.114 0.122-0.191 0.218-0.241 0.337h0.214c0.384 0 0.696 0.312 0.696 0.696s-0.312 0.696-0.696 0.696h-0.293c-0.001 0.173-0.001 0.252-0.002 0.257c-0.003 0.173-0.07 0.338-0.188 0.464l-0.462 0.494v1.642h1.341c-0.003-0.045-0.004-0.09-0.004-0.136c0-1.286 1.042-2.328 2.328-2.328c1.286 0 2.328 1.042 2.328 2.328c0 0.045-0.001 0.09-0.004 0.136h9.739c-0.003-0.045-0.004-0.09-0.004-0.136c0-1.286 1.042-2.328 2.328-2.328c1.286 0 2.328 1.042 2.328 2.328c0 0.045-0.001 0.09-0.004 0.136H22.609z" />
</g>
</svg>