<?xml version="1.0" encoding="UTF-8" standalone="no"?>
<svg xmlns="http://www.w3.org/2000/svg">
<style>

</style>

<g class="root" id="header" viewBox="0 0 440 17">
	<g class="center">
		 <path class="line" d="M4.999,2.173 C9.400,6.131 15.168,8.535 21.489,8.535 C27.811,8.535 33.579,6.131 37.980,2.173 C42.380,6.131 48.149,8.535 54.470,8.535 C60.791,8.535 66.559,6.131 70.960,2.173 C75.360,6.131 81.129,8.535 87.450,8.535 C93.771,8.535 99.539,6.131 103.940,2.173 C108.340,6.131 114.109,8.535 120.430,8.535 C126.751,8.535 132.520,6.131 136.920,2.173 C141.320,6.131 147.089,8.535 153.410,8.535 C159.731,8.535 165.500,6.131 169.900,2.173 C174.301,6.131 180.069,8.535 186.390,8.535 C192.711,8.535 198.480,6.131 202.880,2.173 C207.281,6.131 213.049,8.535 219.370,8.535 C225.691,8.535 231.460,6.131 235.860,2.173 C240.261,6.131 246.029,8.535 252.351,8.535 C258.672,8.535 264.440,6.131 268.841,2.173 C273.241,6.131 279.010,8.535 285.331,8.535 C291.652,8.535 297.420,6.131 301.821,2.173 C306.221,6.131 311.990,8.535 318.311,8.535 C324.632,8.535 330.400,6.131 334.801,2.173 C339.201,6.131 344.970,8.535 351.291,8.535 C357.612,8.535 363.381,6.131 367.781,2.173 C372.182,6.131 377.950,8.535 384.271,8.535 C390.592,8.535 396.361,6.131 400.761,2.173 C405.162,6.131 410.930,8.535 417.251,8.535 C423.105,8.535 428.483,6.472 432.742,3.025 " style="stroke-dasharray: 470; stroke-dashoffset: 470;"></path>
	</g>	
	<g class="left">
		<path class="line" d="M4.999,2.173 C9.400,6.131 15.168,8.535 21.489,8.535 C27.811,8.535 33.579,6.131 37.980,2.173 C42.380,6.131 48.149,8.535 54.470,8.535 C60.791,8.535 66.559,6.131 70.960,2.173 C75.360,6.131 81.129,8.535 87.450,8.535 C93.771,8.535 99.539,6.131 103.940,2.173 C108.340,6.131 114.109,8.535 120.430,8.535 C126.751,8.535 132.520,6.131 136.920,2.173 C141.320,6.131 147.089,8.535 153.410,8.535 C159.731,8.535 165.500,6.131 169.900,2.173 C174.301,6.131 180.069,8.535 186.390,8.535 C192.711,8.535 198.480,6.131 202.880,2.173 C207.281,6.131 213.049,8.535 219.370,8.535 C225.691,8.535 231.460,6.131 235.860,2.173 C240.261,6.131 246.029,8.535 252.351,8.535 C258.672,8.535 264.440,6.131 268.841,2.173 C273.241,6.131 279.010,8.535 285.331,8.535 C291.652,8.535 297.420,6.131 301.821,2.173 C306.221,6.131 311.990,8.535 318.311,8.535 C324.632,8.535 330.400,6.131 334.801,2.173 C339.201,6.131 344.970,8.535 351.291,8.535 C357.612,8.535 363.381,6.131 367.781,2.173 C372.182,6.131 377.950,8.535 384.271,8.535 C390.592,8.535 396.361,6.131 400.761,2.173 C405.162,6.131 410.930,8.535 417.251,8.535 C423.105,8.535 428.483,6.472 432.742,3.025 " style="stroke-dasharray: 470; stroke-dashoffset: 470;"></path> 
	</g>	
	<g class="right">
		 <path class="line" d="M430.563,8.173 C426.163,12.131 420.394,14.535 414.073,14.535 C407.752,14.535 401.983,12.131 397.583,8.173 C393.182,12.131 387.414,14.535 381.093,14.535 C374.772,14.535 369.003,12.131 364.603,8.173 C360.202,12.131 354.434,14.535 348.113,14.535 C341.792,14.535 336.023,12.131 331.623,8.173 C327.222,12.131 321.454,14.535 315.133,14.535 C308.811,14.535 303.043,12.131 298.642,8.173 C294.242,12.131 288.474,14.535 282.152,14.535 C275.831,14.535 270.063,12.131 265.662,8.173 C261.262,12.131 255.493,14.535 249.172,14.535 C242.851,14.535 237.083,12.131 232.682,8.173 C228.282,12.131 222.513,14.535 216.192,14.535 C209.871,14.535 204.102,12.131 199.702,8.173 C195.302,12.131 189.533,14.535 183.212,14.535 C176.891,14.535 171.122,12.131 166.722,8.173 C162.321,12.131 156.553,14.535 150.232,14.535 C143.911,14.535 138.142,12.131 133.742,8.173 C129.341,12.131 123.573,14.535 117.252,14.535 C110.931,14.535 105.162,12.131 100.762,8.173 C96.361,12.131 90.593,14.535 84.272,14.535 C77.950,14.535 72.182,12.131 67.781,8.173 C63.381,12.131 57.612,14.535 51.291,14.535 C44.970,14.535 39.202,12.131 34.801,8.173 C30.401,12.131 24.632,14.535 18.311,14.535 C12.458,14.535 7.079,12.472 2.821,9.025 " style="stroke-dasharray: 470; stroke-dashoffset: 470;"></path>
	</g>
</g>

<g class="root" id="arrow-right" viewBox="0 0 21 30">
	<path class="line" d="M3.717,24.203 L13.725,14.214 L3.717,4.224 " style="stroke-dasharray: 29; stroke-dashoffset: 29;"></path>
						  M3.717,24.203 L13.725,14.214 L3.717,4.224 
</g>

<g class="root" id="arrow-up" viewBox="0 0 30 21">
	<path class="line" d="M4.224,14.937 L14.214,4.929 L24.203,14.937 " style="stroke-dasharray: 29; stroke-dashoffset: 29;"></path>
</g>	

<g class="root" id="arrow-left" viewBox="0 0 21 30">
	<path class="line" d="M14.937,24.213 L4.929,14.224 L14.937,4.234 " style="stroke-dasharray: 29; stroke-dashoffset: 29;"></path>
						  M14.937,24.213 L4.929,14.224 L14.937,4.234 
</g>

<g class="root" id="arrow-down" viewBox="0 0 30 21">
	<path class="line" d="M3.453,3.499 L13.443,13.507 L23.432,3.499 " style="stroke-dasharray: 29; stroke-dashoffset: 29;"></path>
</g>

</svg>